<svg width="300" height="300" version="1.1" viewBox="0 0 79.375 79.375" xmlns="http://www.w3.org/2000/svg" xmlns:xlink="http://www.w3.org/1999/xlink"><defs><linearGradient id="a"><stop stop-color="#316fd8" offset="0"/><stop stop-color="#4aaee6" offset=".31586"/><stop stop-color="#23bac2" offset=".82817"/><stop stop-color="#b8174c" offset="1"/></linearGradient><linearGradient id="b" x1="331.61" x2="457.24" y1="465.36" y2="443.59" gradientTransform="matrix(.50023 0 0 .50023 -161.73 34.531)" gradientUnits="userSpaceOnUse" xlink:href="#a"/><linearGradient id="c" x1="331.61" x2="457.24" y1="465.36" y2="443.59" gradientTransform="matrix(.50023 0 0 .50023 -161.73 32.944)" gradientUnits="userSpaceOnUse" xlink:href="#a"/></defs><g transform="translate(.000215 -217.62)" shape-rendering="auto"><path d="m47.44 249.13-0.19931 0.43184-8.1904 15.924 3.2e-5 1.5875h3.5231l8.3819-17.943-3.2e-5 -1.5875zm20.624 0.71225-0.18074 3.8817-3.4381-1.1226-0.82757 0.772 3.1e-5 1.5875 3.3795 1.4655-2.2677 1.8946 3.1e-5 1.5875 0.58328 0.42111 1.5144 1.0747 2.4777-3.2789 2.4816 3.2789 2.0977-1.4958-3.2e-5 -1.5875-2.2715-1.8946 3.3785-1.4655-2.9e-5 -1.5875-0.82263-0.772-3.4381 1.1226-0.18075-3.8817zm-59.275 0.97505c-0.59249 0-1.1612 0.11098-1.6834 0.3361h-4e-3c-0.53038 0.23061-1.0087 0.55041-1.4186 0.95259-0.42682 0.41906-0.7569 0.91384-0.978 1.4587l-4e-3 4e-3v4e-3c-0.12251 0.31311-0.31753-0.45889-0.31753-0.12423v1.8047c0 1.432 0.85892 2.6666 2.2706 3.4889v4e-3c2.6542 1.5403 4.3538 3.5866 5.1372 4.9531l0.65363 1.1333 0.64972-1.1333c0.78301-1.366 2.4799-3.4134 5.1323-4.9531 1.4154-0.80982 2.2755-2.0508 2.2755-3.4928v-1.3919c0-0.46559-0.15394 0.14059-0.32926-0.29244-0.21471-0.54668-0.54396-1.0422-0.97116-1.4616-0.40992-0.40216-0.88728-0.72296-1.4177-0.95356h-4e-3c-0.52225-0.22497-1.0919-0.33512-1.6844-0.33512-0.59249 0-1.1612 0.11003-1.6834 0.33512-0.52759 0.22542-1.007 0.54672-1.4216 0.95356-0.23657 0.23212-0.37318 0.53841-0.55006 0.81581-0.17509-0.27814-0.31037-0.58351-0.54713-0.81581-0.41527-0.40754-0.89285-0.72809-1.4216-0.95356-0.52225-0.22497-1.0909-0.33512-1.6834-0.33512zm22.178 4.6526c-1.2204 0-2.2962 0.6671-2.936 1.7694l-0.01475 0.0253-0.01172 0.0265c-0.48011 0.99783-0.7111 2.2111-0.73863 3.6335l-0.01475 0.76405h3.0063l0.03322-0.71616c0.04952-1.0594 0.19005-1.8175 0.35076-2.2227 0.11363-0.25588 0.10762-0.25501 0.37224-0.25501 0.03137 0 0.13981 0.0236 0.30679 0.13688 0.05615 0.0431 0.46209 0.47661 0.9604 1.1705l4e-3 4e-3v4e-3c0.5085 0.69402 0.94108 1.1845 1.4362 1.4987l0.01172 8e-3 0.01077 8e-3c0.50601 0.29662 1.0954 0.43574 1.7176 0.43574 1.289 0 2.4032-0.68408 2.976-1.8241 0.2821-0.50258 0.47294-1.0586 0.56863-1.6619 0.09793-0.57673 0.15762-1.2359 0.18466-1.9873l0.02931-0.77868-1.9e-5 -1.5875-3.0424 1.5875-0.01172 0.74253c-0.01323 1.0353-0.14471 1.7745-0.30581 2.1416l-4e-3 4e-3c-0.1454 0.33652-0.16411 0.3361-0.43185 0.3361-0.06031 0-0.13953-8e-3 -0.31851-0.19638l-0.0068-8e-3 -4e-3 -8e-3c-0.2877-0.2877-0.60805-0.66309-0.94576-1.1226l-0.0068-0.0113c-0.22659-0.31733-0.4716-0.60174-0.73179-0.84904l-0.0078-4e-3c-0.25059-0.24994-0.49538-0.45769-0.76013-0.6165h-4e-3c-0.50109-0.29727-1.0773-0.4465-1.6727-0.4465zm26.292 5.2075c-0.61578 0-1.22 0.24495-1.6541 0.67903-0.44722 0.44725-0.68001 1.0753-0.68001 1.7205 0 0.64524 0.23279 1.2772 0.68001 1.7244 0.43409 0.43408 1.0383 0.68001 1.6541 0.68001s1.22-0.24593 1.6541-0.68001c0.44726-0.44725 0.68001-1.0792 0.68001-1.7244 0-0.64526-0.23276-1.2733-0.68001-1.7205-0.43407-0.43408-1.0383-0.67903-1.6541-0.67903z" color="#000000" color-rendering="auto" dominant-baseline="auto" fill="url(#b)" image-rendering="auto" opacity=".5" solid-color="#000000" style="font-feature-settings:normal;font-variant-alternates:normal;font-variant-caps:normal;font-variant-ligatures:normal;font-variant-numeric:normal;font-variant-position:normal;isolation:auto;mix-blend-mode:normal;shape-padding:0;text-decoration-color:#000000;text-decoration-line:none;text-decoration-style:solid;text-indent:0;text-orientation:mixed;text-transform:none;white-space:normal"/><path d="m47.44 247.55-0.19931 0.43184-8.1904 17.511h3.5231l8.3819-17.943zm20.624 0.71224-0.18074 3.8817-3.4381-1.1226-0.82753 2.3595 3.3795 1.4655-2.2677 3.4821 0.58328 0.42111 1.5144 1.0747 2.4777-3.2789 2.4816 3.2789 2.0977-1.4958-2.2716-3.4821 3.3785-1.4655-0.82266-2.3595-3.4381 1.1226-0.18074-3.8817zm-59.275 0.97506c-0.59249 0-1.1612 0.11098-1.6834 0.3361h-4e-3c-0.53038 0.23061-1.0087 0.55041-1.4186 0.95259-0.42682 0.41906-0.7569 0.91384-0.978 1.4587l-0.00397 4e-3v4e-3c-0.20948 0.53535-0.31753 1.1019-0.31753 1.6805 0 1.432 0.85892 2.6666 2.2706 3.4889v4e-3c2.6542 1.5403 4.3538 3.0574 5.1372 4.424l0.65363 1.1333 0.64972-1.1333c0.78301-1.366 2.4799-2.8843 5.1323-4.424 1.4154-0.80983 2.2755-2.0508 2.2755-3.4928 0-0.58066-0.11217-1.1482-0.32926-1.6844-0.21471-0.54668-0.54396-1.0422-0.97116-1.4616-0.40992-0.40216-0.88728-0.72296-1.4177-0.95356h-4e-3c-0.52225-0.22497-1.0919-0.33512-1.6844-0.33512s-1.1612 0.11002-1.6834 0.33512c-0.52759 0.22542-1.007 0.54672-1.4216 0.95356-0.23657 0.23212-0.37318 0.53841-0.55006 0.81581-0.17509-0.27815-0.31037-0.58351-0.54713-0.81581-0.41527-0.40754-0.89285-0.7281-1.4216-0.95356-0.52225-0.22497-1.0909-0.33512-1.6834-0.33512zm22.178 4.6526c-1.2204 0-2.2962 0.6671-2.9359 1.7694l-0.01475 0.0253-0.01172 0.0265c-0.48011 0.99783-0.7111 2.2111-0.73863 3.6335l-0.01475 0.76405h3.0063l0.03322-0.71616c0.04952-1.0594 0.19005-1.8175 0.35076-2.2227 0.11363-0.25588 0.10762-0.25501 0.37224-0.25501 0.03137 0 0.13981 0.0236 0.30678 0.13688 0.05615 0.0431 0.46209 0.47661 0.96041 1.1705l4e-3 4e-3v4e-3c0.5085 0.69402 0.94108 1.1845 1.4362 1.4987l0.01172 8e-3 0.01077 8e-3c0.50601 0.29662 1.0954 0.43574 1.7176 0.43574 1.2889 0 2.4032-0.68408 2.976-1.8241 0.2821-0.50258 0.47294-1.0586 0.56863-1.6619 0.09793-0.57673 0.15762-1.2359 0.18466-1.9873l0.02931-0.77868h-3.0424l-0.01172 0.74253c-0.01323 1.0353-0.14471 1.7745-0.30581 2.1416l-4e-3 4e-3c-0.14539 0.33652-0.16411 0.3361-0.43184 0.3361-0.06031 0-0.13953-8e-3 -0.31851-0.19638l-0.0068-8e-3 -4e-3 -8e-3c-0.2877-0.2877-0.60805-0.66309-0.94576-1.1226l-0.0068-0.0113c-0.22659-0.31733-0.4716-0.60174-0.73179-0.84904l-0.0078-4e-3c-0.25059-0.24994-0.49538-0.45769-0.76012-0.6165h-4e-3c-0.5011-0.29727-1.0773-0.4465-1.6727-0.4465zm26.292 5.2075c-0.61578 0-1.22 0.24495-1.6541 0.67903-0.44722 0.44725-0.68001 1.0753-0.68 1.7205 0 0.64524 0.23279 1.2772 0.68 1.7244 0.43409 0.43408 1.0383 0.68001 1.6541 0.68001s1.22-0.24593 1.6541-0.68001c0.44725-0.44725 0.68001-1.0792 0.68001-1.7244 0-0.64526-0.23276-1.2733-0.68001-1.7205-0.43408-0.43408-1.0383-0.67903-1.6541-0.67903z" color="#000000" color-rendering="auto" dominant-baseline="auto" fill="url(#c)" image-rendering="auto" solid-color="#000000" style="font-feature-settings:normal;font-variant-alternates:normal;font-variant-caps:normal;font-variant-ligatures:normal;font-variant-numeric:normal;font-variant-position:normal;isolation:auto;mix-blend-mode:normal;shape-padding:0;text-decoration-color:#000000;text-decoration-line:none;text-decoration-style:solid;text-indent:0;text-orientation:mixed;text-transform:none;white-space:normal"/></g></svg>
